HIERARCHY
ROOT Hips
{
  OFFSET 0 0 0
  CHANNELS 6 Xposition Yposition Zposition Zrotation Yrotation Xrotation
  JOINT LeftThigh
  {
    OFFSET 8.409438 0 -5.917753
    CHANNELS 3 Zrotation Yrotation Xrotation
    JOINT LeftLeg
    {
      OFFSET 0 0 -42.358652
      CHANNELS 3 Zrotation Yrotation Xrotation
      JOINT LeftFoot
      {
        OFFSET 0 0 -39.357303
        CHANNELS 3 Zrotation Yrotation Xrotation
      }
    }
  }
  JOINT RightThigh
  {
    OFFSET -8.409438 0 -5.917753
    CHANNELS 3 Zrotation Yrotation Xrotation
    JOINT RightLeg
    {
      OFFSET 0 0 -42.358652
      CHANNELS 3 Zrotation Yrotation Xrotation
      JOINT RightFoot
      {
        OFFSET 0 0 -39.357303
        CHANNELS 3 Zrotation Yrotation Xrotation
      }
    }
  }
  JOINT SpineLow
  {
    OFFSET 0 0 4.719101
    CHANNELS 3 Zrotation Yrotation Xrotation
    JOINT SpineMid
    {
      OFFSET 0 0 12.899191
      CHANNELS 3 Zrotation Yrotation Xrotation
      JOINT Chest
      {
        OFFSET 0 0 12.899191
        CHANNELS 3 Zrotation Yrotation Xrotation
        JOINT LeftShoulder
        {
          OFFSET 7.550562 1.41573 9.438202
          CHANNELS 3 Zrotation Yrotation Xrotation
          JOINT LeftArm
          {
            OFFSET 9.155056 0 4.247191
            CHANNELS 3 Zrotation Yrotation Xrotation
            JOINT LeftForearm
            {
              OFFSET 0 0 25.771955
              CHANNELS 3 Zrotation Yrotation Xrotation
              JOINT LeftHand
              {
                OFFSET 0 0 25.197169
                CHANNELS 3 Zrotation Yrotation Xrotation
              }
            }
          }
        }
        JOINT RightShoulder
        {
          OFFSET -7.550562 1.41573 9.438202
          CHANNELS 3 Zrotation Yrotation Xrotation
          JOINT RightArm
          {
            OFFSET -9.155056 0 4.247191
            CHANNELS 3 Zrotation Yrotation Xrotation
            JOINT RightForearm
            {
              OFFSET 0 0 -25.771955
              CHANNELS 3 Zrotation Yrotation Xrotation
              JOINT RightHand
              {
                OFFSET 0 0 -25.197169
                CHANNELS 3 Zrotation Yrotation Xrotation
              }
            }
          }
        }
        JOINT Neck
        {
          OFFSET 0 0 15.101124
          CHANNELS 3 Zrotation Yrotation Xrotation
          JOINT Head
          {
            OFFSET 0 0 11.325843
            CHANNELS 3 Zrotation Yrotation Xrotation
            End Site
            {
              OFFSET 0 0 14.157303
            }
          }
        }
      }
    }
  }
}
MOTION
Frames: 7
Frame Time: 0.0
0.0  101.685394  0.0  0.090605  -35.036513  -102.482018  20.712581  -15.234156  10.169744  3.511363  4.406022  31.149355  8.166077  6.427518  2.122756  3.018297  4.031021  -9.455068  1.445388  12.755739  19.404969  28.678321  3.629361  -1.829791  -6.797834  -1.373609  3.093506  -18.732998  -2.849131  8.768548  -18.732998  -2.849131  8.768548  -2.66755  20.125699  1.339108  54.962734  55.498714  92.880582  -18.971054  -30.065914  119.964201  145.970964  -18.569632  -13.353307  18.737004  11.324922  16.769878  85.425721  -0.907578  50.105454  -44.709589  -20.976181  -103.174834  56.855942  42.952598  -10.957014  27.380192  9.164572  -0.775231  20.50265  6.855004  -0.996768  
0.0  101.685394  0.0  0.133821  -35.402917  -102.390161  21.715116  -15.340424  10.176915  2.982669  4.444192  30.677462  8.009823  6.288618  1.96951  4.177415  4.475672  -9.622385  1.552257  12.478792  19.613001  27.705103  3.281837  -2.054895  -6.914445  -1.542578  3.040517  -19.074684  -3.305  8.678763  -19.074682  -3.305  8.678762  -1.112215  21.485056  1.873891  55.162477  55.484997  93.365978  -18.759953  -29.701601  119.993796  147.713674  -20.360724  -14.431802  20.41648  11.942712  17.32758  85.173638  -0.434935  50.527481  -45.332765  -19.674142  -103.029962  57.951599  42.106766  -9.419793  27.909416  9.511483  -0.405055  20.88984  7.132693  -0.743418  
0.0  101.685394  0.0  0.276183  -34.874673  -102.43271  22.032703  -15.364578  10.332511  2.292299  4.588154  30.155859  7.989144  6.216546  1.978307  4.148896  5.196107  -9.693341  0.74904  12.295489  19.492664  27.882477  3.099032  -2.119257  -6.945777  -1.633982  3.054045  -19.174624  -3.54372  8.743896  -19.174625  -3.54372  8.743896  -1.104472  21.893997  1.94571  55.761248  55.561909  94.048672  -18.536377  -29.420284  119.850808  147.990367  -20.309679  -14.310525  20.815003  11.98757  17.274877  85.007841  0.225768  51.013692  -45.24026  -18.976312  -103.504263  58.272986  41.260917  -8.233731  27.720734  9.651991  -0.479619  20.748497  7.234833  -0.802876  
0.0  101.685394  0.0  0.313348  -34.212298  -102.437461  22.307209  -15.546245  10.450683  1.500046  4.781694  29.62789  7.875647  6.124819  1.975021  3.777402  5.795939  -9.665151  0.066914  12.144445  19.299086  28.029892  2.933861  -2.199142  -6.946373  -1.724597  3.095138  -19.192071  -3.776427  8.882343  -19.192072  -3.776427  8.882343  -1.096413  22.233885  1.904196  56.12034  55.546056  94.658298  -18.280461  -29.463536  119.558635  148.407906  -20.073938  -14.365389  20.996457  11.959042  17.302317  85.155751  0.985584  51.380877  -44.712614  -18.938283  -104.282005  58.42787  40.788997  -7.275971  27.412646  9.744544  -0.675919  20.52027  7.295463  -0.949372  
0.0  101.685394  0.0  0.332518  -33.388723  -102.274479  22.595795  -15.686777  10.382228  0.781657  4.955963  29.228508  7.666069  6.081731  1.989675  3.042024  6.278609  -9.693169  -0.223438  12.01629  19.054835  28.12081  2.849404  -2.250101  -6.843351  -1.79538  3.140158  -18.924131  -3.968985  9.02048  -18.924131  -3.968986  9.02048  -1.837395  22.157031  1.678375  56.485121  55.641621  95.172566  -17.976009  -29.779106  119.161394  149.031325  -19.596852  -14.601031  20.477519  11.720439  17.384547  85.583865  1.915152  51.573875  -43.700263  -19.071793  -105.712527  59.310061  40.293584  -5.630902  26.762361  9.721329  -1.057843  20.040114  7.261209  -1.224105  
0.0  101.685394  0.0  0.205038  -32.523867  -102.087754  22.517429  -15.958025  10.199915  0.259174  5.131081  28.967587  7.477223  6.104566  2.069371  2.065525  6.436878  -9.599349  -1.223544  12.170627  18.514598  28.899378  2.879295  -2.19  -6.796502  -1.873316  3.151389  -18.809299  -4.182905  9.071599  -18.809299  -4.182906  9.071598  -1.96794  22.341042  1.818318  56.467596  55.747814  95.364286  -17.653263  -30.217951  118.733927  149.504757  -18.986331  -14.928939  20.377371  11.626577  18.061497  86.206064  2.941247  51.631276  -42.799877  -19.074725  -107.287041  60.678632  39.690635  -3.596436  26.381616  9.663838  -1.228301  19.758452  7.210841  -1.343171  
0.0  101.685394  0.0  0.139801  -31.564575  -101.909312  22.696418  -16.186368  10.050241  -0.378253  5.306143  28.731685  7.158526  6.083775  2.078497  0.97409  6.444498  -9.447862  -0.969055  12.287073  18.169588  28.794817  2.890762  -2.155634  -6.82133  -1.941851  3.113335  -18.886145  -4.375392  8.990109  -18.886145  -4.375393  8.990109  -1.686414  22.631129  2.144383  56.700717  55.929366  95.614865  -17.456897  -30.573427  118.397905  149.743855  -18.450563  -15.216051  20.82601  11.670462  19.10969  86.845576  3.943857  51.648939  -42.538195  -18.878402  -108.382965  61.933311  38.983736  -1.929554  26.32513  9.64083  -1.197264  19.715872  7.194928  -1.317969  
